STARTFONT 2.1
COMMENT Created by fdbbdf
FONT times12bi
SIZE 12 78 78
FONTBOUNDINGBOX 17 14 -2 -4
STARTPROPERTIES 4
Ownership "  Copyright (c) 1984 Adobe Systems, Inc.  /adobe/fonttools/bitmaps/stdfontvec.ps TI14.bits  TOTAL BITMAP BYTES 1629  GUIDELINES -3 0 7 10 DONE  WIDTHERR -9 -62  "
FONT_ASCENT 10
FONT_DESCENT 4
DEFAULT_CHAR 32
ENDPROPERTIES
CHARS 95
STARTCHAR sp
ENCODING -1 32
SWIDTH 0 0
DWIDTH 4 0
BBX 0 0 0 0
BITMAP
ENDCHAR
STARTCHAR !
ENCODING -1 33
SWIDTH 0 0
DWIDTH 7 0
BBX 5 10 1 -1
BITMAP
1800
1800
3800
3000
3000
2000
6000
0000
c000
c000
ENDCHAR
STARTCHAR "
ENCODING -1 34
SWIDTH 0 0
DWIDTH 7 0
BBX 6 4 2 5
BITMAP
6c00
6c00
d800
9000
ENDCHAR
STARTCHAR #
ENCODING -1 35
SWIDTH 0 0
DWIDTH 8 0
BBX 8 10 0 -1
BITMAP
1200
1200
1200
7f00
2400
2400
fe00
4800
4800
4800
ENDCHAR
STARTCHAR $
ENCODING -1 36
SWIDTH 0 0
DWIDTH 7 0
BBX 7 12 0 -2
BITMAP
0400
1c00
2a00
6a00
7800
3800
1c00
1c00
ac00
a800
7000
4000
ENDCHAR
STARTCHAR %
ENCODING -1 37
SWIDTH 0 0
DWIDTH 14 0
BBX 12 10 1 -1
BITMAP
38c0
6f80
cd00
cb00
dee0
77b0
0d30
0b30
1360
31c0
ENDCHAR
STARTCHAR &
ENCODING -1 38
SWIDTH 0 0
DWIDTH 10 0
BBX 10 10 0 -1
BITMAP
0e00
1900
1900
1a00
1dc0
6c80
cf00
c640
ef80
7b80
ENDCHAR
STARTCHAR '
ENCODING -1 39
SWIDTH 0 0
DWIDTH 5 0
BBX 3 4 2 5
BITMAP
6000
6000
2000
c000
ENDCHAR
STARTCHAR (
ENCODING -1 40
SWIDTH 0 0
DWIDTH 6 0
BBX 5 13 1 -4
BITMAP
1800
3000
3000
6000
6000
6000
c000
c000
c000
c000
c000
c000
6000
ENDCHAR
STARTCHAR )
ENCODING -1 41
SWIDTH 0 0
DWIDTH 6 0
BBX 5 13 0 -4
BITMAP
3000
1800
1800
1800
1800
1800
1800
3000
3000
3000
6000
6000
c000
ENDCHAR
STARTCHAR *
ENCODING -1 42
SWIDTH 0 0
DWIDTH 7 0
BBX 5 5 1 4
BITMAP
2000
f800
7000
f800
2000
ENDCHAR
STARTCHAR +
ENCODING -1 43
SWIDTH 0 0
DWIDTH 9 0
BBX 7 7 1 0
BITMAP
1000
1000
1000
fe00
1000
1000
1000
ENDCHAR
STARTCHAR ,
ENCODING -1 44
SWIDTH 0 0
DWIDTH 4 0
BBX 3 4 0 -3
BITMAP
6000
6000
2000
c000
ENDCHAR
STARTCHAR -
ENCODING -1 45
SWIDTH 0 0
DWIDTH 6 0
BBX 4 1 1 3
BITMAP
f000
ENDCHAR
STARTCHAR .
ENCODING -1 46
SWIDTH 0 0
DWIDTH 3 0
BBX 2 2 0 -1
BITMAP
c000
c000
ENDCHAR
STARTCHAR /
ENCODING -1 47
SWIDTH 0 0
DWIDTH 6 0
BBX 4 10 1 -1
BITMAP
1000
1000
3000
2000
2000
4000
4000
c000
8000
8000
ENDCHAR
STARTCHAR 0
ENCODING -1 48
SWIDTH 0 0
DWIDTH 7 0
BBX 7 10 0 -1
BITMAP
1c00
3600
6600
6600
4600
c400
cc00
cc00
d800
7000
ENDCHAR
STARTCHAR 1
ENCODING -1 49
SWIDTH 0 0
DWIDTH 7 0
BBX 5 10 1 -1
BITMAP
1800
7800
3000
3000
3000
3000
6000
6000
6000
f000
ENDCHAR
STARTCHAR 2
ENCODING -1 50
SWIDTH 0 0
DWIDTH 7 0
BBX 7 10 0 -1
BITMAP
1c00
3e00
2600
0600
0c00
1800
3000
6400
fc00
f800
ENDCHAR
STARTCHAR 3
ENCODING -1 51
SWIDTH 0 0
DWIDTH 7 0
BBX 7 10 0 -1
BITMAP
1c00
2e00
0600
0c00
3800
1c00
0c00
cc00
dc00
7800
ENDCHAR
STARTCHAR 4
ENCODING -1 52
SWIDTH 0 0
DWIDTH 7 0
BBX 7 10 0 -1
BITMAP
0600
0e00
1600
2c00
4c00
fe00
fe00
1800
3000
3000
ENDCHAR
STARTCHAR 5
ENCODING -1 53
SWIDTH 0 0
DWIDTH 7 0
BBX 7 10 0 -1
BITMAP
3e00
3c00
6000
7800
1c00
0c00
0c00
0c00
d800
f000
ENDCHAR
STARTCHAR 6
ENCODING -1 54
SWIDTH 0 0
DWIDTH 7 0
BBX 7 10 0 -1
BITMAP
0e00
3800
6000
6000
f800
cc00
cc00
cc00
f800
7000
ENDCHAR
STARTCHAR 7
ENCODING -1 55
SWIDTH 0 0
DWIDTH 7 0
BBX 7 10 1 -1
BITMAP
7e00
fe00
8c00
0800
1800
3000
2000
6000
c000
c000
ENDCHAR
STARTCHAR 8
ENCODING -1 56
SWIDTH 0 0
DWIDTH 7 0
BBX 7 10 0 -1
BITMAP
3c00
7600
6600
7400
3800
7c00
cc00
cc00
d800
7000
ENDCHAR
STARTCHAR 9
ENCODING -1 57
SWIDTH 0 0
DWIDTH 7 0
BBX 7 10 0 -1
BITMAP
1c00
3600
6600
6600
6600
3e00
0c00
0c00
3800
e000
ENDCHAR
STARTCHAR :
ENCODING -1 58
SWIDTH 0 0
DWIDTH 5 0
BBX 3 7 1 -1
BITMAP
6000
6000
0000
0000
0000
c000
c000
ENDCHAR
STARTCHAR ;
ENCODING -1 59
SWIDTH 0 0
DWIDTH 4 0
BBX 4 9 0 -3
BITMAP
3000
3000
0000
0000
0000
6000
6000
2000
c000
ENDCHAR
STARTCHAR <
ENCODING -1 60
SWIDTH 0 0
DWIDTH 8 0
BBX 7 7 1 0
BITMAP
0600
1c00
7000
c000
6000
3000
1800
ENDCHAR
STARTCHAR =
ENCODING -1 61
SWIDTH 0 0
DWIDTH 8 0
BBX 6 3 1 2
BITMAP
fc00
0000
fc00
ENDCHAR
STARTCHAR >
ENCODING -1 62
SWIDTH 0 0
DWIDTH 8 0
BBX 7 7 0 0
BITMAP
3000
1800
0c00
0600
1c00
7000
c000
ENDCHAR
STARTCHAR ?
ENCODING -1 63
SWIDTH 0 0
DWIDTH 8 0
BBX 6 10 2 -1
BITMAP
7800
9c00
cc00
1800
3000
6000
4000
0000
c000
c000
ENDCHAR
STARTCHAR @
ENCODING -1 64
SWIDTH 0 0
DWIDTH 15 0
BBX 12 12 1 -3
BITMAP
07c0
1c20
3010
6750
4c90
d910
d910
db20
cec0
6000
3040
0f80
ENDCHAR
STARTCHAR A
ENCODING -1 65
SWIDTH 0 0
DWIDTH 9 0
BBX 10 10 -1 -1
BITMAP
0180
0380
0380
0580
0d80
0980
1f80
2180
6180
f3c0
ENDCHAR
STARTCHAR B
ENCODING -1 66
SWIDTH 0 0
DWIDTH 9 0
BBX 10 10 0 -1
BITMAP
3f80
18c0
18c0
3180
3f00
3380
7180
6180
6300
fe00
ENDCHAR
STARTCHAR C
ENCODING -1 67
SWIDTH 0 0
DWIDTH 9 0
BBX 9 10 1 -1
BITMAP
1f80
3980
6100
6000
c000
c000
c000
c100
e600
7c00
ENDCHAR
STARTCHAR D
ENCODING -1 68
SWIDTH 0 0
DWIDTH 10 0
BBX 10 10 0 -1
BITMAP
3f00
1d80
18c0
30c0
30c0
30c0
6180
6180
6700
fc00
ENDCHAR
STARTCHAR E
ENCODING -1 69
SWIDTH 0 0
DWIDTH 10 0
BBX 10 10 0 -1
BITMAP
3fc0
18c0
1800
3100
3f00
3200
7000
6000
6180
ff00
ENDCHAR
STARTCHAR F
ENCODING -1 70
SWIDTH 0 0
DWIDTH 9 0
BBX 10 10 0 -1
BITMAP
3fc0
18c0
1800
3100
3f00
3200
7000
6000
6000
f000
ENDCHAR
STARTCHAR G
ENCODING -1 71
SWIDTH 0 0
DWIDTH 10 0
BBX 9 10 1 -1
BITMAP
1f80
3980
6100
6000
c000
c780
c300
c300
e600
7e00
ENDCHAR
STARTCHAR H
ENCODING -1 72
SWIDTH 0 0
DWIDTH 11 0
BBX 12 10 0 -1
BITMAP
3cf0
1860
1860
30c0
3fc0
30c0
6180
6180
6180
f3c0
ENDCHAR
STARTCHAR I
ENCODING -1 73
SWIDTH 0 0
DWIDTH 5 0
BBX 8 10 -1 -1
BITMAP
1f00
0c00
0c00
1800
1800
1800
3000
3000
3000
f800
ENDCHAR
STARTCHAR J
ENCODING -1 74
SWIDTH 0 0
DWIDTH 7 0
BBX 8 11 0 -2
BITMAP
0f00
0600
0600
0c00
0c00
0c00
1800
1800
d800
f000
6000
ENDCHAR
STARTCHAR K
ENCODING -1 75
SWIDTH 0 0
DWIDTH 11 0
BBX 11 10 0 -1
BITMAP
3de0
18c0
1900
3200
3400
3c00
3600
6300
6180
f3c0
ENDCHAR
STARTCHAR L
ENCODING -1 76
SWIDTH 0 0
DWIDTH 9 0
BBX 8 10 0 -1
BITMAP
3c00
1800
1800
3000
3000
3000
6000
6100
6300
fe00
ENDCHAR
STARTCHAR M
ENCODING -1 77
SWIDTH 0 0
DWIDTH 13 0
BBX 15 10 -1 -1
BITMAP
1e1e
0e1c
1e2c
1658
1658
3698
2730
2730
6630
e678
ENDCHAR
STARTCHAR N
ENCODING -1 78
SWIDTH 0 0
DWIDTH 11 0
BBX 13 10 0 -1
BITMAP
3c78
1c30
1c20
1660
3640
2640
23c0
6380
4180
e180
ENDCHAR
STARTCHAR O
ENCODING -1 79
SWIDTH 0 0
DWIDTH 10 0
BBX 9 10 1 -1
BITMAP
1f00
3380
6180
6180
c180
c180
c300
c300
e600
7c00
ENDCHAR
STARTCHAR P
ENCODING -1 80
SWIDTH 0 0
DWIDTH 9 0
BBX 10 10 0 -1
BITMAP
3f80
18c0
18c0
30c0
3180
3f00
3000
6000
6000
f000
ENDCHAR
STARTCHAR Q
ENCODING -1 81
SWIDTH 0 0
DWIDTH 10 0
BBX 10 13 0 -4
BITMAP
0f80
19c0
30c0
30c0
60c0
60c0
6180
6180
7300
3e00
3000
7c80
8f00
ENDCHAR
STARTCHAR R
ENCODING -1 82
SWIDTH 0 0
DWIDTH 10 0
BBX 10 10 0 -1
BITMAP
3f80
18c0
18c0
31c0
3f80
3600
3300
6300
6180
f1c0
ENDCHAR
STARTCHAR S
ENCODING -1 83
SWIDTH 0 0
DWIDTH 8 0
BBX 9 10 0 -1
BITMAP
1f80
3180
3100
3800
1c00
0e00
0600
8600
ce00
fc00
ENDCHAR
STARTCHAR T
ENCODING -1 84
SWIDTH 0 0
DWIDTH 10 0
BBX 10 10 2 -1
BITMAP
ffc0
ccc0
8c80
1800
1800
1800
3000
3000
7000
f800
ENDCHAR
STARTCHAR U
ENCODING -1 85
SWIDTH 0 0
DWIDTH 10 0
BBX 11 10 1 -1
BITMAP
7de0
30c0
3080
7180
6100
6100
e300
c200
c600
7c00
ENDCHAR
STARTCHAR V
ENCODING -1 86
SWIDTH 0 0
DWIDTH 10 0
BBX 10 10 1 -1
BITMAP
f3c0
6180
6300
6200
6600
6400
2c00
3800
3800
3000
ENDCHAR
STARTCHAR W
ENCODING -1 87
SWIDTH 0 0
DWIDTH 13 0
BBX 14 10 1 -1
BITMAP
f7bc
6318
6310
6330
6720
6760
2940
39c0
3180
3180
ENDCHAR
STARTCHAR X
ENCODING -1 88
SWIDTH 0 0
DWIDTH 9 0
BBX 10 10 0 -1
BITMAP
7bc0
3180
1b00
1e00
0c00
0c00
1e00
3600
6300
f780
ENDCHAR
STARTCHAR Y
ENCODING -1 89
SWIDTH 0 0
DWIDTH 8 0
BBX 10 10 0 -1
BITMAP
f3c0
6180
3300
3600
1c00
1800
1800
3000
3000
7800
ENDCHAR
STARTCHAR Z
ENCODING -1 90
SWIDTH 0 0
DWIDTH 8 0
BBX 9 10 0 -1
BITMAP
3f80
3380
2300
0600
0c00
1800
3000
6100
e300
ff00
ENDCHAR
STARTCHAR [
ENCODING -1 91
SWIDTH 0 0
DWIDTH 6 0
BBX 7 13 0 -4
BITMAP
1e00
1800
1800
3000
3000
3000
6000
6000
6000
c000
c000
c000
f000
ENDCHAR
STARTCHAR \
ENCODING -1 92
SWIDTH 0 0
DWIDTH 6 0
BBX 4 10 1 -1
BITMAP
8000
8000
c000
4000
4000
2000
2000
3000
1000
1000
ENDCHAR
STARTCHAR ]
ENCODING -1 93
SWIDTH 0 0
DWIDTH 5 0
BBX 7 13 -1 -4
BITMAP
1e00
0600
0600
0c00
0c00
0c00
1800
1800
1800
3000
3000
3000
f000
ENDCHAR
STARTCHAR ^
ENCODING -1 94
SWIDTH 0 0
DWIDTH 8 0
BBX 6 6 1 3
BITMAP
1800
3800
6c00
6c00
cc00
cc00
ENDCHAR
STARTCHAR _
ENCODING -1 95
SWIDTH 0 0
DWIDTH 7 0
BBX 7 1 0 -3
BITMAP
fe00
ENDCHAR
STARTCHAR `
ENCODING -1 96
SWIDTH 0 0
DWIDTH 5 0
BBX 3 4 2 5
BITMAP
6000
8000
c000
c000
ENDCHAR
STARTCHAR a
ENCODING -1 97
SWIDTH 0 0
DWIDTH 8 0
BBX 8 7 0 -1
BITMAP
1a00
7600
6600
cc00
cc00
fd00
6e00
ENDCHAR
STARTCHAR b
ENCODING -1 98
SWIDTH 0 0
DWIDTH 7 0
BBX 7 10 0 -1
BITMAP
3800
1800
3000
3c00
7600
6600
6600
cc00
f800
6000
ENDCHAR
STARTCHAR c
ENCODING -1 99
SWIDTH 0 0
DWIDTH 6 0
BBX 6 7 0 -1
BITMAP
1c00
7400
6000
c000
c000
e800
7000
ENDCHAR
STARTCHAR d
ENCODING -1 100
SWIDTH 0 0
DWIDTH 7 0
BBX 8 10 0 -1
BITMAP
0700
0300
0600
3600
6e00
cc00
cc00
cc00
f800
6c00
ENDCHAR
STARTCHAR e
ENCODING -1 101
SWIDTH 0 0
DWIDTH 7 0
BBX 7 7 0 -1
BITMAP
1c00
7600
6600
f800
c000
ec00
7800
ENDCHAR
STARTCHAR f
ENCODING -1 102
SWIDTH 0 0
DWIDTH 5 0
BBX 9 13 -2 -4
BITMAP
0380
0680
0600
1f00
0c00
0c00
1800
1800
1800
3000
3000
b000
e000
ENDCHAR
STARTCHAR g
ENCODING -1 103
SWIDTH 0 0
DWIDTH 6 0
BBX 8 10 -1 -4
BITMAP
1f00
3600
6600
6600
3c00
6000
7c00
ce00
c600
7c00
ENDCHAR
STARTCHAR h
ENCODING -1 104
SWIDTH 0 0
DWIDTH 8 0
BBX 8 10 0 -1
BITMAP
3800
1800
3000
3600
3b00
7700
6600
6600
cc00
ce00
ENDCHAR
STARTCHAR i
ENCODING -1 105
SWIDTH 0 0
DWIDTH 4 0
BBX 5 10 0 -1
BITMAP
1800
1800
0000
7000
3000
6000
6000
c000
d000
e000
ENDCHAR
STARTCHAR j
ENCODING -1 106
SWIDTH 0 0
DWIDTH 4 0
BBX 7 13 -2 -4
BITMAP
0600
0600
0000
1c00
0c00
0800
1800
1800
1800
3000
3000
a000
e000
ENDCHAR
STARTCHAR k
ENCODING -1 107
SWIDTH 0 0
DWIDTH 7 0
BBX 8 10 0 -1
BITMAP
3800
1800
3000
3300
3600
6c00
7800
6c00
cc00
ce00
ENDCHAR
STARTCHAR l
ENCODING -1 108
SWIDTH 0 0
DWIDTH 4 0
BBX 5 10 0 -1
BITMAP
3800
1800
3000
3000
3000
6000
6000
c000
d000
6000
ENDCHAR
STARTCHAR m
ENCODING -1 109
SWIDTH 0 0
DWIDTH 11 0
BBX 11 7 0 -1
BITMAP
76c0
3fe0
6660
6660
66c0
ccc0
cce0
ENDCHAR
STARTCHAR n
ENCODING -1 110
SWIDTH 0 0
DWIDTH 8 0
BBX 8 7 0 -1
BITMAP
7600
3b00
7700
6600
6600
cc00
ce00
ENDCHAR
STARTCHAR o
ENCODING -1 111
SWIDTH 0 0
DWIDTH 7 0
BBX 7 7 0 -1
BITMAP
1c00
7600
6600
c600
cc00
dc00
7000
ENDCHAR
STARTCHAR p
ENCODING -1 112
SWIDTH 0 0
DWIDTH 7 0
BBX 9 10 -2 -4
BITMAP
3700
1d80
1980
1980
3300
3300
3c00
6000
6000
f000
ENDCHAR
STARTCHAR q
ENCODING -1 113
SWIDTH 0 0
DWIDTH 7 0
BBX 7 10 0 -4
BITMAP
1e00
3600
6600
6c00
cc00
dc00
7800
1800
3000
7800
ENDCHAR
STARTCHAR r
ENCODING -1 114
SWIDTH 0 0
DWIDTH 6 0
BBX 7 7 0 -1
BITMAP
6c00
3e00
7400
6000
6000
c000
c000
ENDCHAR
STARTCHAR s
ENCODING -1 115
SWIDTH 0 0
DWIDTH 6 0
BBX 6 7 0 -1
BITMAP
3c00
6c00
6000
3000
1800
d800
f000
ENDCHAR
STARTCHAR t
ENCODING -1 116
SWIDTH 0 0
DWIDTH 4 0
BBX 6 9 0 -1
BITMAP
1000
3000
7c00
2000
6000
6000
c000
d000
e000
ENDCHAR
STARTCHAR u
ENCODING -1 117
SWIDTH 0 0
DWIDTH 7 0
BBX 7 7 0 -1
BITMAP
f600
6600
6c00
cc00
c800
fa00
6c00
ENDCHAR
STARTCHAR v
ENCODING -1 118
SWIDTH 0 0
DWIDTH 6 0
BBX 7 7 0 -1
BITMAP
ee00
6600
6400
6c00
6800
7000
4000
ENDCHAR
STARTCHAR w
ENCODING -1 119
SWIDTH 0 0
DWIDTH 9 0
BBX 10 7 0 -1
BITMAP
e5c0
6480
6d80
6d00
7e00
6c00
4800
ENDCHAR
STARTCHAR x
ENCODING -1 120
SWIDTH 0 0
DWIDTH 6 0
BBX 8 7 -1 -1
BITMAP
7700
3200
1c00
1800
2c00
6600
ee00
ENDCHAR
STARTCHAR y
ENCODING -1 121
SWIDTH 0 0
DWIDTH 6 0
BBX 7 9 -1 -3
BITMAP
7600
3200
3600
3400
3c00
1800
1800
d000
e000
ENDCHAR
STARTCHAR z
ENCODING -1 122
SWIDTH 0 0
DWIDTH 6 0
BBX 6 7 0 -1
BITMAP
7c00
6c00
5800
3000
6000
e400
bc00
ENDCHAR
STARTCHAR {
ENCODING -1 123
SWIDTH 0 0
DWIDTH 7 0
BBX 8 13 0 -4
BITMAP
0700
0c00
1800
1800
1800
3000
c000
6000
6000
6000
c000
c000
7000
ENDCHAR
STARTCHAR |
ENCODING -1 124
SWIDTH 0 0
DWIDTH 5 0
BBX 5 13 0 -4
BITMAP
1800
1800
1800
3000
3000
3000
7000
6000
6000
6000
c000
c000
c000
ENDCHAR
STARTCHAR }
ENCODING -1 125
SWIDTH 0 0
DWIDTH 7 0
BBX 8 13 -1 -4
BITMAP
0e00
0300
0300
0600
0600
0600
0300
0c00
1800
1800
1800
3000
e000
ENDCHAR
STARTCHAR ~
ENCODING -1 126
SWIDTH 0 0
DWIDTH 10 0
BBX 8 2 1 2
BITMAP
7900
9e00
ENDCHAR
ENDFONT
